<?xml version="1.0" standalone="no"?>
<!DOCTYPE svg PUBLIC "-//W3C//DTD SVG 20010904//EN"
 "http://www.w3.org/TR/2001/REC-SVG-20010904/DTD/svg10.dtd">
<svg version="1.0" xmlns="http://www.w3.org/2000/svg"
 width="2048.000000pt" height="417.000000pt" viewBox="0 0 2048.000000 417.000000"
 preserveAspectRatio="xMidYMid meet">
<metadata>
Created by potrace 1.16, written by Peter Selinger 2001-2019
</metadata>
<g transform="translate(0.000000,417.000000) scale(0.100000,-0.100000)"
fill="#000000" stroke="none">
<path d="M2717 3833 c-4 -3 -7 -136 -7 -294 0 -323 -5 -301 77 -344 21 -11
150 -85 288 -163 137 -79 322 -185 410 -235 88 -49 167 -96 176 -103 13 -12
15 -85 14 -649 -1 -379 -6 -640 -11 -645 -5 -5 -43 -27 -84 -48 -266 -139
-382 -200 -482 -253 -62 -33 -171 -89 -243 -126 -71 -36 -133 -71 -137 -77 -9
-13 -11 -646 -2 -646 5 0 518 287 624 350 28 17 52 30 54 30 2 0 75 40 161 90
86 49 158 90 159 90 2 0 59 32 127 71 68 40 153 88 189 107 36 20 101 57 145
82 l80 46 3 927 2 926 -42 29 c-24 16 -77 47 -118 69 -143 77 -195 106 -222
125 -14 10 -28 18 -31 18 -4 0 -48 24 -222 122 -44 25 -102 58 -130 73 -27 16
-102 57 -165 93 -63 36 -139 79 -168 95 -52 28 -219 121 -297 166 -22 13 -63
36 -91 52 -28 16 -54 26 -57 22z"/>
<path d="M2615 3096 c-11 -8 -85 -54 -165 -103 -400 -246 -510 -316 -510 -324
0 -5 8 -13 18 -16 9 -4 33 -16 52 -28 19 -12 55 -33 80 -47 25 -14 62 -35 83
-47 260 -148 469 -262 473 -258 9 9 6 831 -2 834 -5 1 -18 -4 -29 -11z"/>
<path d="M10815 2699 c-90 -7 -210 -45 -294 -92 -89 -50 -202 -170 -249 -263
-58 -119 -67 -160 -67 -324 0 -159 9 -199 68 -318 84 -169 270 -307 462 -343
168 -32 362 -15 515 47 45 18 158 79 172 92 4 4 8 127 8 272 l1 265 -133 0
-133 0 -5 -195 -5 -194 -45 -17 c-107 -41 -190 -46 -306 -21 -148 32 -269 160
-303 320 -42 202 44 394 217 479 72 36 82 38 187 42 143 4 217 -18 312 -95 23
-19 47 -34 55 -34 7 1 51 37 97 81 l85 80 -49 49 c-126 128 -340 189 -590 169z"/>
<path d="M16360 2685 c-230 -63 -418 -234 -482 -439 -19 -60 -38 -171 -38
-221 0 -57 22 -182 43 -243 38 -109 152 -252 255 -322 56 -37 182 -89 246
-101 352 -66 670 73 814 357 49 97 66 173 65 304 0 135 -12 195 -58 296 -31
68 -93 154 -143 198 -20 17 -40 36 -46 42 -22 21 -93 62 -146 84 -30 12 -64
26 -75 30 -77 31 -343 41 -435 15z m380 -271 c145 -70 230 -212 230 -388 0
-174 -81 -318 -218 -386 -215 -108 -466 -26 -567 184 -41 86 -54 188 -36 291
28 157 123 265 291 329 8 3 65 4 125 3 100 -2 116 -5 175 -33z"/>
<path d="M13567 2453 c-58 -131 -130 -294 -160 -363 -47 -108 -200 -455 -259
-590 -11 -25 -26 -58 -34 -74 -27 -56 -27 -56 130 -56 l144 0 15 33 c8 17 32
75 53 127 20 52 41 101 47 108 7 9 83 12 317 12 l307 0 28 -72 c15 -40 41
-103 58 -140 l30 -68 148 0 c93 0 149 4 149 10 0 5 -18 49 -39 97 -22 49 -82
185 -134 303 -52 118 -109 245 -126 283 -17 37 -31 69 -31 71 0 2 -18 43 -40
90 -22 47 -40 88 -40 91 0 3 -16 40 -36 82 -20 43 -54 121 -76 173 -22 52 -45
101 -51 108 -7 8 -50 12 -152 12 l-143 0 -105 -237z m260 -85 c5 -7 29 -60 52
-118 24 -58 49 -118 56 -135 42 -99 85 -211 85 -222 0 -10 -43 -13 -203 -13
-112 0 -206 3 -210 6 -3 3 6 32 19 63 14 31 44 101 66 156 41 103 51 127 87
207 11 26 21 52 21 58 0 14 16 13 27 -2z"/>
<path d="M5420 2020 l0 -660 145 0 145 0 0 660 0 660 -145 0 -145 0 0 -660z"/>
<path d="M6110 2020 l0 -660 145 0 146 0 -1 372 c0 205 -1 383 0 396 0 12 4
22 9 22 8 0 127 -143 484 -584 18 -22 63 -77 100 -123 l68 -83 120 0 119 0 0
660 0 661 -142 -3 -143 -3 -3 -392 c-1 -247 -6 -393 -12 -393 -5 0 -38 35 -72
77 -35 42 -97 118 -138 169 -41 50 -158 193 -258 318 l-184 226 -119 0 -119 0
0 -660z"/>
<path d="M7557 2673 c-4 -3 -7 -57 -7 -119 0 -93 3 -113 16 -118 9 -3 103 -6
210 -6 l194 0 2 -532 3 -533 148 -3 147 -3 0 536 0 535 194 0 c107 0 201 3
210 6 13 5 16 25 16 113 0 70 -4 111 -12 119 -9 9 -148 12 -563 12 -304 0
-555 -3 -558 -7z"/>
<path d="M8939 2676 c-2 -2 -3 -299 -1 -660 l2 -656 505 0 505 0 0 110 c0 99
-2 110 -20 120 -13 7 -135 10 -350 10 -182 -1 -335 2 -340 5 -6 4 -10 66 -10
150 0 121 2 144 16 149 9 3 146 6 305 6 l289 0 0 110 c0 61 -1 111 -2 112 -2
1 -138 5 -303 8 l-300 5 0 145 0 145 340 5 c187 3 341 7 343 8 1 1 2 54 2 117
l0 115 -488 0 c-269 0 -491 -2 -493 -4z"/>
<path d="M11807 2673 c-4 -3 -7 -300 -7 -660 l0 -653 150 0 150 0 0 185 0 185
143 0 143 0 125 -185 124 -184 158 -1 c180 0 171 -9 95 95 -38 52 -86 123
-192 279 -14 21 -26 43 -26 47 0 5 19 18 42 30 63 32 141 116 176 191 26 53
33 84 38 155 15 214 -66 368 -239 453 -124 61 -194 70 -563 70 -171 0 -314 -3
-317 -7z m703 -263 c84 -43 120 -105 120 -206 0 -119 -60 -198 -173 -225 -29
-7 -117 -13 -202 -13 l-150 -1 -3 225 c-1 123 0 231 3 239 4 11 36 13 183 9
160 -4 181 -7 222 -28z"/>
<path d="M14564 2667 c-2 -7 -3 -62 -2 -123 l3 -109 208 -3 207 -2 0 -535 0
-535 145 0 145 0 2 533 3 532 199 3 c127 1 204 6 213 13 14 12 19 171 7 217
l-6 22 -559 0 c-453 0 -561 -3 -565 -13z"/>
<path d="M17589 2673 c0 -5 0 -300 0 -658 l1 -650 145 -3 145 -3 2 183 3 183
145 0 144 0 124 -182 123 -183 155 0 c85 0 154 2 154 4 0 6 -114 173 -237 348
-18 26 -33 54 -33 62 0 8 25 31 55 51 82 55 138 123 169 205 48 131 32 324
-35 423 -82 120 -189 184 -354 213 -86 15 -705 21 -706 7z m692 -257 c20 -8
50 -27 67 -41 36 -30 72 -118 72 -173 0 -83 -59 -179 -126 -207 -76 -31 -376
-49 -402 -23 -14 14 -18 449 -4 463 13 14 353 -2 393 -19z"/>
</g>
</svg>
